<svg xmlns="http://www.w3.org/2000/svg" viewBox="0 0 636 663" width="30%">
                        <path id="peach-body" fill="#f95700" stroke="black" stroke-width="1" d="M 545.00,158.25
           C 716.25,289.88 627.33,615.00 313.71,653.75
             124.00,641.00 -119.00,400.00 77.33,173.36
             77.00,173.00 141.33,224.67 255.33,168.00
             294.00,149.00 319.75,136.00 328.50,146.75
             360.29,109.85 499.33,116.67 545.00,158.25 Z
           M 17.33,122.00" />

                        <path id="peach-stem" fill="#563517" stroke="black" stroke-width="1" d="M 328.38,146.38
           C 328.58,146.80 335.18,141.73 334.75,140.88
             334.75,140.88 318.25,73.75 353.18,30.64
             354.50,17.62 337.50,6.25 325.25,7.88
             313.00,9.50 302.91,77.82 313.27,133.82
             312.28,134.45 325.00,148.18 328.38,146.38 Z" />

                        <path id="peach-leaf-right" fill="green" stroke="black" stroke-width="1" d="M 335.27,141.09
           C 335.27,141.18 434.45,91.15 542.50,156.88
             543.47,157.73 578.85,119.91 575.75,115.25
             574.75,110.50 465.76,-3.82 331.55,97.09
             330.60,95.53 330.08,133.80 335.27,141.09 Z" />

                        <path id="peach-leaf-left" fill="green" stroke="black" stroke-width="1" d="M 29.38,111.38
           C 29.38,111.38 75.00,254.33 257.00,167.33
             275.33,158.00 296.88,149.75 321.12,143.00
             303.62,115.00 188.52,1.46 29.38,111.38 Z" />
                    </svg>