<?xml version="1.0" encoding="UTF-8" standalone="no"?>
<!DOCTYPE svg PUBLIC "-//W3C//DTD SVG 20010904//EN"
              "http://www.w3.org/TR/2001/REC-SVG-20010904/DTD/svg10.dtd">

<svg xmlns="http://www.w3.org/2000/svg"
     width="7.06667in" height="7.36667in"
     viewBox="0 0 636 663">
  <path id="Izbor #2"
        fill="none" stroke="black" stroke-width="1"
        d="M 313.00,132.00
           C 309.19,111.10 308.90,94.05 309.00,73.00
             309.06,59.38 312.55,30.43 317.46,18.00
             318.73,14.80 320.87,10.18 324.18,8.74
             333.47,4.69 351.79,15.18 352.80,27.00
             353.27,32.49 343.98,44.85 341.18,51.00
             335.08,64.38 331.32,82.30 331.00,97.00
             343.81,86.77 358.13,78.50 373.00,71.69
             421.82,49.34 472.81,49.66 521.00,73.75
             536.50,81.50 552.27,91.25 565.00,103.09
             568.58,106.41 576.44,112.67 575.30,118.00
             574.54,121.52 569.51,128.09 567.19,131.00
             567.19,131.00 544.00,158.00 544.00,158.00
             550.85,161.61 560.41,170.43 566.00,176.00
             581.39,191.35 595.50,210.55 605.25,230.00
             651.47,322.21 632.00,430.76 572.12,512.00
             524.44,576.68 455.06,620.28 378.00,641.15
             378.00,641.15 336.00,650.42 336.00,650.42
             330.89,651.35 316.49,654.01 312.00,653.68
             216.12,646.50 122.65,587.36 64.21,513.00
             34.75,475.52 13.45,429.35 6.87,382.00
             5.95,375.40 5.01,368.67 5.00,362.00
             5.00,362.00 5.00,336.00 5.00,336.00
             5.00,336.00 6.87,318.00 6.87,318.00
             12.18,279.73 27.25,243.25 48.34,211.00
             48.34,211.00 77.00,173.00 77.00,173.00
             69.88,170.22 64.32,164.32 59.00,159.00
             47.53,147.53 31.74,125.93 28.00,110.00
             28.00,110.00 67.00,87.27 67.00,87.27
             82.34,79.60 101.30,72.85 118.00,68.88
             175.57,55.22 235.81,68.99 283.00,104.37
             293.88,112.53 304.36,121.47 313.00,132.00 Z" />
</svg>
